<svg width="219" height="184" viewBox="0 0 219 184" fill="none" xmlns="http://www.w3.org/2000/svg">
					<path d="M39 82C39 103.926 39 125.852 39 147.778C39 156.704 39 165.63 39 174.556C39 176.908 39.4796 183.873 38.8333 181.611C27.648 142.462 18.4885 101.991 10.1111 62.1667C6.19441 43.5472 -0.306788 -13.151 3.72224 5.44445C7.79056 24.2213 12.0467 42.7877 17.8889 61.1111C18.223 62.159 19.9157 70.3322 22.6667 68.0556C27.7308 63.8646 29.3346 53.1207 31 47.3333C33.7298 37.8473 36.4388 28.3657 39.3889 18.9444C39.4689 18.6889 43.0051 5.655 45.0556 8.38889C50.7567 15.9904 50.7819 33.3521 52.0556 42C55.2472 63.6695 58.202 85.3768 61.3333 107.056C63.9267 125.01 64.4977 145.327 70.5 162.667C71.0416 164.231 73.4994 166.122 72.8889 163.222C71.8373 158.227 69.4338 153.344 67.7778 148.556C63.306 135.626 59.6913 122.374 57.3333 108.889C55.9449 100.949 49.4627 69.5927 61.6111 65.4444C73.8559 61.2633 75.5183 88.5006 75.3333 94.6667C75.1741 99.975 74.8849 112.869 67.1667 113.833C65.3485 114.061 66.7398 112.379 67.3889 112C70.703 110.067 75.4327 110.274 78.9445 111.444C91.1828 115.524 93.6001 132.324 95.4445 143.222C96.2488 147.975 95.9905 154.919 102 155.778C108.311 156.679 113.218 153.637 118 150C124.332 145.184 129.693 139.518 129.556 131C129.4 121.338 122.236 114.803 113.222 113C103.255 111.007 109.739 122.504 113.667 125.556C118.494 129.305 132.437 135.924 132.556 124.778C132.601 120.532 125.118 109.56 127.444 113.111C131.858 119.848 137.74 127.588 146.333 129.111C154.88 130.626 144.708 111.649 143.222 109.444C142.228 107.97 138.813 103.896 140.111 105.111C144.268 109 148.38 112.931 152.778 116.556C154.248 117.768 177.873 133.063 175.333 125.556C174.428 122.88 165.821 112.158 167.111 112.444C178.058 114.877 188.813 117.783 200.111 118C201.429 118.025 206.119 117.764 201.444 118C193.667 118.393 186.238 120.507 179.222 123.889C170.571 128.06 162.757 133.878 155.889 140.556C153.25 143.121 146.065 151.487 148.778 149C159.044 139.589 167.566 127.064 176.111 116.222C190.322 98.1915 203.577 79.6032 217 61" stroke="black" stroke-width="3" stroke-linecap="round"/>
				</svg>